<?xml version="1.0" encoding="utf-8"?>
<!-- Generator: Adobe Illustrator 22.0.1, SVG Export Plug-In . SVG Version: 6.00 Build 0)  -->
<svg version="1.1" id="Layer_1" xmlns="http://www.w3.org/2000/svg" xmlns:xlink="http://www.w3.org/1999/xlink" x="0px" y="0px"
	 viewBox="0 0 512 128" style="enable-background:new 0 0 512 128;" xml:space="preserve">
<style type="text/css">
	.st0{fill:#CCCCCC;}
	.st1{fill:#00A551;}
	.st2{fill:#FFF100;}
	.st3{fill:#00ADEE;}
</style>
<g>
	<path class="st0" d="M98.5,96.8H54.8V26.3h10.9v61h32.8V96.8z"/>
	<path class="st0" d="M106.2,31.9c0-3.4,2.7-6.1,6.1-6.1c3.4,0,6.2,2.7,6.2,6.1c0,3.3-2.7,6-6.2,6C108.9,37.9,106.2,35.2,106.2,31.9
		z M107,45.4h10.5v51.4H107V45.4z"/>
	<path class="st0" d="M128.3,45.4h10.1V54h0.2c2.3-5.7,7.7-9.5,14.6-9.5c7.1,0,12.3,3.7,14.4,10.1h0.2c2.6-6.2,8.7-10.1,16-10.1
		c10.2,0,16.8,6.7,16.8,16.9v35.3h-10.6V64c0-6.6-3.6-10.4-9.8-10.4s-10.6,4.6-10.6,11.1v32.1h-10.4V63.2c0-5.9-3.8-9.7-9.7-9.7
		c-6.2,0-10.7,4.9-10.7,11.5v31.7h-10.5V45.4z"/>
	<path class="st0" d="M210.3,31.9c0-3.4,2.7-6.1,6.1-6.1c3.4,0,6.2,2.7,6.2,6.1c0,3.3-2.7,6-6.2,6C213.1,37.9,210.3,35.2,210.3,31.9
		z M211.1,45.4h10.5v51.4h-10.5V45.4z"/>
	<path class="st0" d="M246.2,33.2v12.2h9.8v8.3h-9.8v28.3c0,4.4,2,6.4,6.2,6.4c1.1,0,2.8-0.1,3.5-0.2v8.3c-1.2,0.3-3.5,0.5-5.9,0.5
		c-10.4,0-14.5-4-14.5-13.9V53.7h-7.5v-8.3h7.5V33.2H246.2z"/>
	<path class="st0" d="M307.4,81.7c-1.5,9.4-10.4,16.1-22.1,16.1c-15.1,0-24.2-10.2-24.2-26.4c0-16.1,9.3-26.9,23.8-26.9
		c14.3,0,23.1,10.1,23.1,25.6v3.6h-36.3v0.6c0,8.9,5.4,14.8,13.8,14.8c6,0,10.4-3,11.9-7.5H307.4z M271.7,66.3h25.7
		c-0.2-7.9-5.2-13.4-12.6-13.4S272.3,58.6,271.7,66.3z"/>
	<path class="st0" d="M313.8,71.1c0-16.2,8.6-26.5,21.5-26.5c7.4,0,13.2,3.7,16.1,9.4h0.2V26.3h10.6v70.5H352V88h-0.2
		c-3,5.9-8.9,9.6-16.4,9.6C322.4,97.6,313.8,87.3,313.8,71.1z M324.6,71.1c0,10.8,5.2,17.6,13.6,17.6c8.1,0,13.5-6.9,13.5-17.6
		c0-10.6-5.4-17.6-13.5-17.6C329.8,53.4,324.6,60.3,324.6,71.1z"/>
</g>
<path class="st1" d="M403.2,99.5L403.2,99.5c9.7,0,17.5-7.8,17.5-17.5v0c0-9.7-7.8-17.5-17.5-17.5h0c-9.7,0-17.5,7.8-17.5,17.5v0
	C385.7,91.7,393.5,99.5,403.2,99.5z"/>
<path class="st2" d="M446.2,99.5L446.2,99.5c9.7,0,17.5-7.8,17.5-17.5v0c0-9.7-7.8-17.5-17.5-17.5h0c-9.7,0-17.5,7.8-17.5,17.5v0
	C428.7,91.7,436.5,99.5,446.2,99.5z"/>
<path class="st3" d="M403.2,58.5L403.2,58.5c9.7,0,17.5-7.8,17.5-17.5v0c0-9.7-7.8-17.5-17.5-17.5h0c-9.7,0-17.5,7.8-17.5,17.5v0
	C385.7,50.7,393.5,58.5,403.2,58.5z"/>
</svg>
